<?xml version="1.0" encoding="UTF-8"?><svg id="a" xmlns="http://www.w3.org/2000/svg" viewBox="0 0 988.88 539.5"><defs><style>.b{fill:#fff;}.c{fill:#1c1c1c;}.d{opacity:.37;}</style></defs><rect class="c" x=".12" y=".12" width="988.63" height="539.25"/><g class="d"><path class="b" d="M988.88,539.5H0V0H988.88V539.5ZM.25,539.25H988.63V.25H.25V539.25Z"/><rect class="b" x=".12" y="505.55" width="988.63" height=".25"/><rect class="b" x=".12" y="471.84" width="988.63" height=".25"/><rect class="b" x=".12" y="438.14" width="988.63" height=".25"/><rect class="b" x=".12" y="404.44" width="988.63" height=".25"/><rect class="b" x=".12" y="370.73" width="988.63" height=".25"/><rect class="b" x=".12" y="337.03" width="988.63" height=".25"/><rect class="b" x=".12" y="303.33" width="988.63" height=".25"/><rect class="b" x=".12" y="269.63" width="988.63" height=".25"/><rect class="b" x=".12" y="235.92" width="988.63" height=".25"/><rect class="b" x=".12" y="202.22" width="988.63" height=".25"/><rect class="b" x=".12" y="168.52" width="988.63" height=".25"/><rect class="b" x=".12" y="134.81" width="988.63" height=".25"/><rect class="b" x=".12" y="101.11" width="988.63" height=".25"/><rect class="b" x=".12" y="67.41" width="988.63" height=".25"/><rect class="b" x=".12" y="33.7" width="988.63" height=".25"/><rect class="b" x="953.32" y=".12" width=".25" height="539.25"/><rect class="b" x="918.01" y=".12" width=".25" height="539.25"/><rect class="b" x="882.7" y=".12" width=".25" height="539.25"/><rect class="b" x="847.39" y=".12" width=".25" height="539.25"/><rect class="b" x="812.09" y=".12" width=".25" height="539.25"/><rect class="b" x="776.78" y=".12" width=".25" height="539.25"/><rect class="b" x="741.47" y=".12" width=".25" height="539.25"/><rect class="b" x="706.16" y=".12" width=".25" height="539.25"/><rect class="b" x="670.85" y=".12" width=".25" height="539.25"/><rect class="b" x="635.55" y=".12" width=".25" height="539.25"/><rect class="b" x="600.24" y=".12" width=".25" height="539.25"/><rect class="b" x="564.93" y=".12" width=".25" height="539.25"/><rect class="b" x="529.62" y=".12" width=".25" height="539.25"/><rect class="b" x="494.31" y=".12" width=".25" height="539.25"/><rect class="b" x="459" y=".12" width=".25" height="539.25"/><rect class="b" x="423.7" y=".12" width=".25" height="539.25"/><rect class="b" x="388.39" y=".12" width=".25" height="539.25"/><rect class="b" x="353.08" y=".12" width=".25" height="539.25"/><rect class="b" x="317.77" y=".12" width=".25" height="539.25"/><rect class="b" x="282.46" y=".12" width=".25" height="539.25"/><rect class="b" x="247.16" y=".12" width=".25" height="539.25"/><rect class="b" x="211.85" y=".12" width=".25" height="539.25"/><rect class="b" x="176.54" y=".12" width=".25" height="539.25"/><rect class="b" x="141.23" y=".12" width=".25" height="539.25"/><rect class="b" x="105.92" y=".12" width=".25" height="539.25"/><rect class="b" x="70.62" y=".12" width=".25" height="539.25"/><rect class="b" x="35.31" y=".12" width=".25" height="539.25"/></g></svg>
