<?xml version="1.0" encoding="UTF-8"?><svg id="a" xmlns="http://www.w3.org/2000/svg" viewBox="0 0 841.89 595.28"><defs><style>.b,.c{fill:#fff;}.c{fill-rule:evenodd;}</style></defs><path class="c" d="M130.17,230.7c6.21,1.44,7.74,1.51,14.11,1.27,.94,0,1.97,1.74,3.06,1.56,.74-.12,.65-.12,.65-.53,0-16.17-6.59-3.05-16.25-5.18-5.54-1.23-4.15-6.06-6.57-10.46-3.14,5.5,.77,12.37,5,13.35"/><path class="c" d="M158.79,239.71c-6.21-1.44-7.74-1.51-14.11-1.27-.94,0-1.97-1.74-3.05-1.56-.74,.12-.65,.12-.65,.53,0,16.17,6.59,3.05,16.25,5.18,5.54,1.23,4.15,6.06,6.57,10.46,3.14-5.5-.77-12.37-5-13.35"/><path class="c" d="M138.16,250.96c1.44-6.21,1.51-7.74,1.27-14.11,0-.94,1.74-1.97,1.56-3.05-.12-.74-.12-.65-.53-.65-16.17,0-3.05,6.59-5.18,16.25-1.23,5.54-6.06,4.15-10.46,6.57,5.5,3.14,12.37-.77,13.35-5"/><path class="c" d="M151.05,219.08c-1.44,6.21-1.51,7.74-1.27,14.11,0,.94-1.74,1.97-1.56,3.06,.12,.73,.12,.65,.53,.65,16.17,0,3.05-6.59,5.18-16.25,1.23-5.54,6.06-4.15,10.46-6.57-2.01-1.14-4.34-1.15-6.36-.75-3.51,.7-6.37,3.07-6.99,5.75"/><path class="c" d="M116.49,191.53l2.86-5.66c-11.87,7.22-17.82,32.02-16.75,45.73,1.35,17.15,10.57,26.05,10.37,36.47-20.32,.72-48.79-13.15-68.95,14.34-1.33,1.75-1.13,1.79-2.08,4.17,25.28-22.82,72.62-16.1,82.67,17.39,12.68,42.28-2.8,78.87-4.83,105.44l26.06-2.24c2.57-22.1-17.22-77.33,5.22-110.25,9.36-13.74,23.39-18.88,30.53-33.26,10-20.13-1.72-34.67-15.36-41.46-2.32-1.15-7.47-4.17-10.03-4.39,4.01,6.59,15.61,12.51,18.75,23.73,3.13,11.18-1.06,18.02-6.96,23.69-30.86,29.67-74.5-17.4-51.5-73.7"/><polygon class="b" points="243.21 283.55 243.21 294.48 259.64 294.48 259.64 301.55 243.21 301.55 243.21 322.94 234.9 322.94 234.9 276.16 265.72 276.16 265.72 283.55 243.21 283.55"/><path class="b" d="M299.45,299.14c0,5.46,.93,9.69,2.78,12.69,1.84,3,4.54,4.5,8.07,4.5,4.15,0,7.32-1.47,9.5-4.41,2.18-2.93,3.27-7.2,3.27-12.79,0-10.96-4.05-16.43-12.13-16.43-3.71,0-6.54,1.48-8.53,4.45-1.97,2.97-2.97,6.97-2.97,11.98m-8.64,0c0-6.66,1.82-12.3,5.47-16.91,3.65-4.61,8.54-6.91,14.66-6.91,6.73,0,11.88,2.08,15.43,6.26,3.56,4.18,5.33,10.03,5.33,17.57s-1.85,13.52-5.57,17.95c-3.72,4.43-9,6.64-15.83,6.64-6.28,0-11.1-2.19-14.46-6.58-3.35-4.39-5.03-10.39-5.03-18.02Z"/><polygon class="b" points="389.68 323.6 366.98 293.96 366.98 322.94 359 322.94 359 276.16 362.99 276.16 385.1 304.43 385.1 276.16 393.09 276.16 393.09 323.6 389.68 323.6"/><path class="b" d="M430.94,283.46v31.9c1.34,.13,2.78,.2,4.34,.2,4.19,0,7.47-1.52,9.84-4.56,2.37-3.04,3.55-7.3,3.55-12.77,0-10-4.65-14.99-13.94-14.99-.89,0-2.16,.08-3.79,.23m2.07,39.49h-10.38v-46.76c6.62-.23,10.79-.35,12.49-.35,6.82,0,12.21,2,16.21,5.99,3.99,3.99,5.99,9.29,5.99,15.89,0,16.83-8.1,25.23-24.3,25.23Z"/><path class="b" d="M500.52,289.84l-5.66,17.27h11.31l-5.65-17.27Zm11.52,33.11l-3.44-9.49h-16.12l-3.28,9.49h-9.23l18.71-47.44h3.66l18.84,47.44h-9.16Z"/><polygon class="b" points="543.79 322.94 543.79 320.26 563.29 283.55 543.79 283.55 543.79 276.16 574.61 276.16 574.61 278.84 555.04 315.55 575.33 315.55 575.33 322.94 543.79 322.94"/><rect class="b" x="602.8" y="276.16" width="8.31" height="46.78"/><path class="b" d="M647.18,299.14c0,5.46,.93,9.69,2.78,12.69,1.84,3,4.54,4.5,8.07,4.5,4.16,0,7.32-1.47,9.5-4.41,2.18-2.93,3.27-7.2,3.27-12.79,0-10.96-4.05-16.43-12.13-16.43-3.71,0-6.54,1.48-8.53,4.45-1.97,2.97-2.97,6.97-2.97,11.98m-8.64,0c0-6.66,1.82-12.3,5.47-16.91,3.65-4.61,8.54-6.91,14.66-6.91,6.73,0,11.88,2.08,15.43,6.26,3.56,4.18,5.33,10.03,5.33,17.57s-1.85,13.52-5.57,17.95c-3.72,4.43-9,6.64-15.83,6.64-6.28,0-11.1-2.19-14.46-6.58-3.35-4.39-5.03-10.39-5.03-18.02Z"/><polygon class="b" points="737.42 323.6 714.72 293.96 714.72 322.94 706.73 322.94 706.73 276.16 710.73 276.16 732.84 304.43 732.84 276.16 740.82 276.16 740.82 323.6 737.42 323.6"/><polygon class="b" points="778.67 283.55 778.67 294.48 793.85 294.48 793.85 301.55 778.67 301.55 778.67 315.55 799.94 315.55 799.94 322.94 770.36 322.94 770.36 276.16 799.94 276.16 799.94 283.55 778.67 283.55"/><path class="b" d="M225.6,335.5l-5.04,10.1c-2.73-2.69-7.12-4.04-13.17-4.04s-10.44,2.41-14.11,7.2c-3.67,4.8-5.5,10.86-5.5,18.2s1.7,13.18,5.1,17.5c3.4,4.31,7.94,6.46,13.62,6.46,6.49,0,11.56-2.33,15.23-6.98l5.69,9.86c-4.99,5.32-12.28,7.99-21.92,7.99s-17.09-3.16-22.42-9.48c-5.34-6.32-8-14.95-8-25.87,0-10.17,2.95-18.67,8.87-25.51,5.9-6.83,13.47-10.25,22.69-10.25,7.91,0,14.22,1.6,18.95,4.81"/><path class="b" d="M246.66,365.63c0,8.03,1.36,14.26,4.09,18.67,2.71,4.41,6.67,6.62,11.87,6.62,6.11,0,10.76-2.17,13.97-6.48,3.21-4.31,4.81-10.58,4.81-18.81,0-16.12-5.95-24.17-17.83-24.17-5.45,0-9.62,2.18-12.54,6.54-2.9,4.36-4.36,10.25-4.36,17.62m-12.7,0c0-9.8,2.68-18.09,8.05-24.87,5.37-6.78,12.56-10.17,21.55-10.17,9.89,0,17.46,3.06,22.69,9.2,5.23,6.14,7.84,14.75,7.84,25.83s-2.73,19.89-8.19,26.4c-5.47,6.51-13.23,9.77-23.28,9.77-9.24,0-16.32-3.22-21.26-9.67-4.92-6.46-7.39-15.28-7.39-26.49Z"/><polygon class="b" points="350.01 401.6 316.63 358.01 316.63 400.64 304.89 400.64 304.89 331.84 310.76 331.84 343.28 373.41 343.28 331.84 355.02 331.84 355.02 401.6 350.01 401.6"/><polygon class="b" points="381.33 342.71 381.33 358.78 405.48 358.78 405.48 369.17 381.33 369.17 381.33 400.64 369.11 400.64 369.11 331.84 414.43 331.84 414.43 342.71 381.33 342.71"/><polygon class="b" points="437.48 342.71 437.48 358.78 459.8 358.78 459.8 369.17 437.48 369.17 437.48 389.76 468.75 389.76 468.75 400.64 425.26 400.64 425.26 331.84 468.75 331.84 468.75 342.71 437.48 342.71"/><path class="b" d="M476.82,396.8l4.52-10.98c4.83,3.4,9.57,5.1,14.24,5.1,7.18,0,10.78-2.5,10.78-7.51,0-2.34-.85-4.57-2.55-6.7-1.68-2.12-5.18-4.51-10.47-7.15-5.29-2.63-8.87-4.81-10.7-6.51-1.84-1.72-3.26-3.74-4.23-6.08-.99-2.36-1.49-4.96-1.49-7.79,0-5.32,1.96-9.73,5.85-13.23,3.9-3.51,8.9-5.26,15.01-5.26,7.95,0,13.81,1.49,17.53,4.47l-3.7,10.54c-4.3-3.08-8.82-4.62-13.58-4.62-2.82,0-5,.74-6.56,2.23-1.56,1.48-2.33,3.42-2.33,5.79,0,3.95,4.38,8.03,13.12,12.28,4.62,2.25,7.94,4.33,9.97,6.22,2.04,1.89,3.59,4.09,4.65,6.61,1.07,2.53,1.6,5.34,1.6,8.43,0,5.56-2.2,10.15-6.61,13.74-4.39,3.61-10.28,5.4-17.67,5.4-6.43,0-12.22-1.67-17.38-4.99"/><polygon class="b" points="541.39 342.71 541.39 358.78 563.72 358.78 563.72 369.17 541.39 369.17 541.39 389.76 572.66 389.76 572.66 400.64 529.17 400.64 529.17 331.84 572.66 331.84 572.66 342.71 541.39 342.71"/><path class="b" d="M596.61,342.42v19.15c2.26,.19,3.98,.29,5.16,.29,5.12,0,8.84-.72,11.21-2.16,2.36-1.44,3.54-4.25,3.54-8.42,0-3.4-1.27-5.77-3.8-7.12-2.53-1.35-6.53-2.02-11.98-2.02-1.32,0-2.69,.1-4.14,.29m26.17,58.21l-18.41-28.38c-1.86-.03-4.44-.14-7.76-.34v28.72h-12.7v-68.86c.69,0,3.34-.11,7.94-.35,4.62-.24,8.32-.35,11.15-.35,17.5,0,26.24,6.78,26.24,20.33,0,4.07-1.2,7.79-3.62,11.16-2.41,3.35-5.45,5.72-9.11,7.1l20.33,30.97h-14.05Z"/><polygon class="b" points="654.9 342.71 654.9 358.78 679.05 358.78 679.05 369.17 654.9 369.17 654.9 400.64 642.68 400.64 642.68 331.84 688 331.84 688 342.71 654.9 342.71"/><rect class="b" x="699.11" y="331.84" width="12.22" height="68.8"/><path class="b" d="M737.82,342.57v46.91c1.97,.19,4.09,.29,6.38,.29,6.16,0,10.98-2.23,14.46-6.7,3.48-4.47,5.23-10.73,5.23-18.78,0-14.71-6.83-22.05-20.49-22.05-1.32,0-3.18,.11-5.58,.34m3.05,58.07h-15.27v-68.76c9.73-.34,15.86-.51,18.36-.51,10.02,0,17.96,2.93,23.83,8.8,5.87,5.87,8.8,13.66,8.8,23.37,0,24.74-11.92,37.11-35.73,37.11Z"/><rect class="b" x="787.71" y="331.84" width="12.22" height="68.8"/></svg>