<?xml version="1.0" encoding="UTF-8"?><svg id="a" xmlns="http://www.w3.org/2000/svg" viewBox="0 0 1968.25 274.51"><defs><style>.b{fill:#fff;}</style></defs><g><path class="b" d="M1511.25,56.29v20.18h-66.05V12.26h23.85V56.29h42.2Z"/><path class="b" d="M1539.71,76.46h-23.85V12.26h23.85V76.46Z"/><path class="b" d="M1595.57,42.52l36.97,33.94h-33.02l-20.54-20.37-9.91,8.17v12.2h-23.85V12.26h23.85v25.13l29.53-25.13h33.94l-36.97,30.27Z"/><path class="b" d="M1660.08,30.6v5.96h44.03v15.59h-44.03v5.96h44.03v18.35h-67.88V12.26h67.88V30.6h-44.03Z"/><path class="b" d="M1804.31,64.91h-27.34l-4.41,11.56h-26.24l26.61-64.22h35.41l26.6,64.21h-26.24l-4.4-11.56h0Zm-6.24-16.5l-7.43-19.63-7.43,19.63h14.87Z"/><path class="b" d="M1508.86,150.47l11.38,18.44h-28.26l-8.89-15.04h-14.04v15.04h-23.85V104.69h50.45c14.59,0,24.58,10.28,24.58,24.58,0,9.36-4.31,17.06-11.38,21.19Zm-39.81-16.78h22.01c2.39,0,5.33,0,5.33-4.41s-2.94-4.41-5.33-4.41h-22.01v8.81h0Z"/><path class="b" d="M1523.93,136.71c0-22.29,12.11-32.94,40.36-32.94s40.36,10.73,40.36,32.94-12.2,33.11-40.36,33.11-40.36-10.73-40.36-33.11Zm56.87,0c0-6.7-2.38-12.75-16.51-12.75s-16.51,5.96-16.51,12.75,2.47,12.93,16.51,12.93,16.51-6.14,16.51-12.93Z"/><path class="b" d="M1675.31,148.73v20.18h-66.05V104.69h23.85v44.03h42.2Z"/><path class="b" d="M1745.96,148.73v20.18h-66.05V104.69h23.85v44.03h42.2Z"/><path class="b" d="M1774.41,168.9h-23.85V104.69h23.85v64.21h0Z"/><path class="b" d="M1862.66,104.69v64.21h-31.19l-27.71-37.89v37.89h-23.85V104.69h31.19l27.71,37.89v-37.89h23.85Z"/><path class="b" d="M1905.16,133.95h41.65v34.95h-13.76l-1.74-9.27c-5.41,6.33-13.85,10.18-27.34,10.18-23.66,0-37.6-10.73-37.6-33.11s13.94-32.94,40.36-32.94,39.07,8.99,40.08,26.51h-24.4c-.92-3.31-5.6-6.33-15.68-6.33-14.12,0-16.51,5.96-16.51,13.67s2.47,14.77,16.51,14.77c9.17,0,14.77-1.29,15.68-5.6h-17.25v-12.83Z"/><path class="b" d="M1468.13,238.69c0,3.12,2.94,5.23,18.07,5.23,14.12,0,16.24-.92,16.24-3.31,0-2.76-2.11-3.12-17.16-3.58-28.98-.92-40.09-5.68-40.09-20.64,0-14.12,13.85-20.18,39.17-20.18s39.17,6.05,39.17,22.48h-23.85c0-3.39-5.51-4.13-17.16-4.13s-13.49,.55-13.49,3.03,2.29,2.39,16.23,2.94c25.32,1.01,41.01,2.76,41.01,19.54,0,17.71-14.67,22.2-41.01,22.2s-40.99-4.5-40.99-23.57h23.85Z"/><path class="b" d="M1607.04,217.31h-27.52v44.03h-23.85v-44.03h-27.52v-20.18h78.89v20.18h0Z"/><path class="b" d="M1609.81,229.15c0-22.29,12.1-32.94,40.36-32.94s40.36,10.73,40.36,32.94-12.2,33.11-40.36,33.11-40.36-10.73-40.36-33.11h0Zm56.87,0c0-6.7-2.39-12.75-16.51-12.75s-16.51,5.96-16.51,12.75,2.47,12.93,16.51,12.93,16.51-6.14,16.51-12.93Z"/><path class="b" d="M1777.88,197.13v64.21h-31.19l-27.71-37.89v37.89h-23.85v-64.21h31.19l27.71,37.89v-37.89h23.85Z"/><path class="b" d="M1807.26,215.48v5.96h44.03v15.59h-44.03v5.96h44.03v18.35h-67.88v-64.21h67.88v18.35h-44.03Z"/><path class="b" d="M1878.84,238.69c0,3.12,2.93,5.23,18.07,5.23,14.12,0,16.23-.92,16.23-3.31,0-2.76-2.11-3.12-17.15-3.58-28.99-.92-40.09-5.68-40.09-20.64,0-14.12,13.85-20.18,39.17-20.18s39.17,6.05,39.17,22.48h-23.85c0-3.39-5.5-4.13-17.16-4.13s-13.49,.55-13.49,3.03,2.29,2.39,16.24,2.94c25.32,1.01,41.01,2.76,41.01,19.54,0,17.71-14.67,22.2-41.01,22.2s-41.01-4.5-41.01-23.57h23.86Z"/></g><g><path class="b" d="M393.67,258.78h-62.5V92.12l-101.04,166.67h-45.14L83.95,92.12v166.67H21.45V15.73H105.82l101.74,171.53L309.29,15.73h84.37v243.05Z"/><path class="b" d="M648.9,207.05h-145.49l-26.04,51.73h-68.75L533.97,15.73h84.37l125.69,243.05h-69.1l-26.04-51.73Zm-23.26-46.53l-49.31-98.61-49.65,98.61h98.96Z"/><path class="b" d="M799.27,175.1c0,25.69,20.83,37.5,100,37.5,65.62,0,85.42-7.29,85.42-26.39,0-20.14-13.89-23.61-92.71-27.43-105.9-4.86-147.92-21.53-147.92-76.04S798.57,12.26,889.54,12.26s147.22,22.92,147.22,82.99h-62.5c0-26.74-26.74-33.33-91.67-33.33-61.46,0-76.04,5.9-76.04,23.96s14.58,22.22,85.42,26.39c95.83,5.21,155.21,10.42,155.21,71.88,0,64.93-61.46,78.12-151.39,78.12-99.65,0-159.03-17.02-159.03-87.15h62.5Z"/><path class="b" d="M1345.81,68.16h-118.06v190.62h-62.5V68.16h-118.06V15.73h298.61v52.43Z"/></g><rect class="b" x="1387.19" y="15.73" width="9.19" height="243.05"/></svg>