<?xml version="1.0" encoding="utf-8"?>
<!-- Generator: Adobe Illustrator 26.2.1, SVG Export Plug-In . SVG Version: 6.00 Build 0)  -->
<svg version="1.1" id="a" xmlns="http://www.w3.org/2000/svg" xmlns:xlink="http://www.w3.org/1999/xlink" x="0px" y="0px"
	 viewBox="0 0 351.6 66.4" style="enable-background:new 0 0 351.6 66.4;" xml:space="preserve">
<style type="text/css">
	.st0{fill:#141414;}
	.st1{fill:#FFFFFF;}
</style>
<g>
	<path class="st1" d="M98.8,65.5H82.2V21.2L55.4,65.5h-12L16.6,21.2v44.3H0V0.9h22.4l27,45.5l27-45.5h22.4V65.5z"/>
	<path class="st1" d="M166.6,51.7H128l-6.9,13.7h-18.3l33.3-64.5h22.4l33.4,64.5h-18.3L166.6,51.7z M160.4,39.4l-13.1-26.2
		l-13.2,26.2H160.4z"/>
	<path class="st1" d="M206.5,43.2c0,6.8,5.5,10,26.6,10c17.4,0,22.7-1.9,22.7-7c0-5.3-3.7-6.3-24.6-7.3
		c-28.1-1.3-39.3-5.7-39.3-20.2C191.9,4.5,206.3,0,230.5,0c24.3,0,39.1,6.1,39.1,22H253c0-7.1-7.1-8.9-24.3-8.9
		c-16.3,0-20.2,1.6-20.2,6.4c0,5,3.9,5.9,22.7,7c25.4,1.4,41.2,2.8,41.2,19.1c0,17.2-16.3,20.7-40.2,20.7
		c-26.5,0-42.2-4.5-42.2-23.1H206.5z"/>
	<path class="st1" d="M351.6,14.8h-31.3v50.6h-16.6V14.8h-31.3V0.9h79.3V14.8z"/>
</g>
</svg>
