<?xml version="1.0" encoding="utf-8"?>
<!-- Generator: Adobe Illustrator 25.0.1, SVG Export Plug-In . SVG Version: 6.00 Build 0)  -->
<svg version="1.1" id="Livello_1" xmlns="http://www.w3.org/2000/svg" xmlns:xlink="http://www.w3.org/1999/xlink" x="0px" y="0px"
	 viewBox="0 0 1000 350.6" style="enable-background:new 0 0 1000 350.6;" xml:space="preserve">
<style type="text/css">
	.st0{fill:#1EA1AE;}
</style>
<g>
	<path class="st0" d="M279.3,59.5c1.1-1.1,1.6-1.6,1.6-1.6s0.5,0,2.1,0c1.6,0,2.6,0.5,4.2,1.6c1.1,1.1,1.6,2.6,1.6,4.2v237.9
		c0,1.6-0.5,2.6-1.6,4.2c-1.1,1.1-2.6,1.6-4.2,1.6c0,0-0.5,0-1.6-0.5c-0.5,0-1.1,0.5-1.6,0.5h-21.1c0,0-0.5,0-1.6-0.5
		c-0.5,0-1.1,0.5-1.6,0.5c-1.6,0-2.6-0.5-4.2-1.6c-1.1-1.1-1.6-2.6-1.6-4.2V86.9l-86,216.3c-1.1,2.1-2.6,3.7-5.3,3.7H158
		c0,0,0,0-0.5,0H157c-2.6,0-4.2-1.1-5.3-3.7L66.2,92.7v208.9c0,1.6-0.5,3.2-1.6,4.2c-1.1,1.1-2.6,1.6-4.2,1.6
		c-1.6,0-2.6-0.5-4.2-1.6c-1.1-1.1-1.6-2.6-1.6-4.2V63.7c0-0.5,0-1.1,0.5-1.6c0.5-3.2,2.6-4.2,5.3-4.2s4.2,1.1,5.3,3.7l92.8,225.8
		l90.2-226.3c1.1-3.2,3.2-4.2,6.3-3.7c0.5,0,1.1-0.5,1.1-0.5c1.6,0,3.2,0.5,4.2,1.6c1.1,1.1,1.6,2.6,1.6,4.2v232.6h15.3V62.7
		C277.7,61.6,278.3,60.6,279.3,59.5z"/>
	<path class="st0" d="M505.6,300.6c0.5,1.6,0.5,3.2,0,4.7s-1.6,2.6-3.2,2.6c-0.5,0.5-1.1,0.5-2.1,0.5c-2.6,0-4.2-1.1-5.3-3.7L408,79
		l-85.4,225.8c-0.5,2.6-2.6,3.7-5.3,3.7c-0.5,0-1.1,0-1.6-0.5c-1.6-0.5-2.6-1.6-3.2-2.6c-0.5-1.6-0.5-2.6,0-4.2l90.7-240v-0.5
		c0,0,0.5-0.5,1.1-1.1c0-0.5,0.5-1.1,0.5-1.1s0.5,0,0.5-0.5c0.5-0.5,1.1-0.5,1.1-0.5l0.5-0.5h0.5c0.5,0,1.1-0.5,1.1-0.5
		s0.5,0,1.1,0.5h0.5h0.5c0,0,0,0.5,0.5,0.5c0,0,0.5,0,1.1,0.5l0.5,0.5l0.5,0.5c0.5,1.1,1.1,1.6,1.1,1.6v0.5L505.6,300.6z M446,258.4
		l17.9,42.7c0.5,1.6,0.5,2.6,0,4.2c-0.5,1.6-1.6,2.6-3.2,3.2c-0.5,0.5-1.6,0.5-2.1,0.5c-2.6,0-4.2-1.1-5.3-3.7l-16.4-39h-73.8
		c-1.6,0-3.2-0.5-4.2-1.6c-1.1-1.1-1.6-2.6-1.6-4.2c0-1.6,0.5-2.6,1.6-4.2c1.1-1.1,2.6-1.6,4.2-1.6h77.5c2.7,0,3.5,1,4,1.5
		C444.8,256.2,445.5,257.3,446,258.4z"/>
	<path class="st0" d="M528.9,128.2C528.9,128.2,528.9,128.1,528.9,128.2c-0.3-0.7-0.4-1.4-0.5-2.1c-0.9-10.7,0.5-15.7,4.6-26
		c3.7-10,9.5-18.5,16.9-25.8c7.4-6.9,15.8-13.2,25.3-17.9s19.5-7.9,30.1-9.5c6.9-1.6,13.7-1.6,21.1-1.1c7.4,0.5,14.8,2.1,21.6,3.7
		c6.9,1.6,14.2,4.7,21.1,9.5c6.9,4.2,13.2,9.5,18.5,15.8c5.8,6.3,10.5,13.7,14.8,23.2c4.2,9,7.9,19.5,10,31.1c0,1.6,0,2.6-1.1,4.2
		s-2.1,2.1-3.7,2.1c-0.5,0-1.1,0-2.1,0L705,136l-18.5,3.2c-0.5,0-0.5,0-1.1,0c-0.5,0-0.5-0.5-1.1-0.5h-0.5c-3.2,0-4.7-1.6-5.8-4.7
		c-3.7-18.5-10.5-32.7-21.1-41.7c-10.5-9-24.3-13.7-42.2-13.7c-1.6,0-2.6-0.5-4.2-1.6c-1.1-1.1-1.6-2.6-1.6-4.2s0.5-3.2,1.6-4.2
		c1.1-1.1,2.6-1.6,4.2-1.6c39,0,63.3,20,72.8,59.6l11.6-1.6c-2.6-11.1-6.9-21.1-11.6-29.5c-5.3-8.4-10.5-15.3-16.9-20
		c-6.3-4.7-13.2-9-20.6-12.1c-7.4-3.2-14.8-4.7-22.2-5.3c-7.4-0.5-14.2,0-21.6,0.5c-12.1,2.1-23.7,6.3-34.3,12.1
		c-10.5,6.3-19,14.8-25.3,25.3c-6.3,10.4-9.2,16.7-7.7,29.2c0,0.3,0,0.5,0,0.8c0,1.4-0.1,2.8-1.1,3.8
		C537,130.8,533,133.4,528.9,128.2z M712.4,228.8c1.6,11.1,0,21.6-3.7,32.2c-3.7,10-9.5,18.5-16.9,25.8
		c-7.4,6.9-15.8,13.2-25.3,17.4c-9.5,4.7-19.5,7.9-30.1,9.5c-5.3,0.5-10.5,1.1-15.8,1.1c-10,0-19.5-1.6-28.5-4.2
		c-9-3.2-17.9-7.4-26.4-13.7c-8.4-6.3-15.8-14.8-22.2-25.8c-6.3-11.1-11.1-23.7-13.7-39c0-1.6,0-3.2,1.1-4.2
		c1.1-1.1,2.1-2.1,3.7-2.1c1.6-0.5,2.6,0,4.2,1.1c1.6,1.1,2.1,2.1,2.1,3.7c2.1,10,4.7,19,8.4,27.4c3.7,8.4,8.4,14.8,13.2,20
		c4.7,5.3,10.5,10,16.4,13.7c5.8,3.7,12.1,6.9,18.5,8.4c6.3,1.6,12.7,2.6,19,3.2c6.3,0.5,12.7,0.5,18.5-1.1
		c12.1-2.1,23.7-6.3,34.3-12.1c10.5-6.3,19-14.8,25.3-25.3c6.3-10.5,9-22.2,7.4-34.8c0-1.6,0-3.2,1.1-4.2c1.1-1.1,2.1-2.1,3.7-2.1
		c1.6,0,3.2,0,4.2,1.1C711.3,226.2,712.4,227.2,712.4,228.8z M618,175c7.9,0.5,14.2,1.6,17.9,2.1c4.2,0.5,9.5,1.6,16.9,2.6
		s12.7,2.1,16.9,3.7c3.7,1.1,8.4,2.6,13.7,4.7c5.3,2.1,9.5,4.7,12.7,6.9c3.2,2.6,5.9,5.7,8.4,9.5c2.1,3,2.6,3.7,3.9,7.7
		c0.5,1.6,0,3.2-0.5,4.2c-0.5,1.6-2.1,2.1-3.7,2.6c-0.5,0-0.5,0-1.1,0c-3.2,0-4.7-1.6-5.8-4.2c-1.1-2.3-1.1-3-2.8-5.1
		c-2.1-2.6-4.7-5.3-7.4-6.9c-2.6-2.1-6.3-3.7-11.1-5.3s-9-3.2-12.7-4.2c-3.7-1.1-8.4-2.1-14.8-3.2c-6.3-1.1-11.6-2.1-15.3-2.1
		c-3.7-0.5-9-1.1-16.4-2.1c-5.8-0.5-10.5-1.1-13.2-1.6c-3.2-0.5-6.9-1.1-12.7-1.6c-5.3-0.5-9.5-1.6-12.7-2.1
		c-3.2-0.5-6.9-1.6-11.1-2.6c-4.7-1.1-7.9-2.6-10.5-3.7c-2.6-1.1-5.8-2.6-9-4.7c-3.2-1.6-5.8-3.7-7.9-5.8c-2.1-2.1-3.7-4.2-5.3-7.4
		c-1.6-2.6-2.6-5.8-3.2-9c0-1.1,0-2.1,0-3.2c0.5-1.1,1.1-1.6,1.6-2.6c0.5-0.5,1.6-1.1,2.6-1.6c1.6-0.5,3.2,0,4.2,0.5
		c1.1,1.1,2.1,2.1,2.6,3.7c0.5,3.2,2.1,5.8,3.7,7.9c2.1,2.6,4.2,4.7,6.9,6.3s5.8,3.2,10,4.7c4.2,1.6,7.9,2.6,11.6,3.7
		c3.2,0.5,7.9,1.6,13.7,2.6c5.8,1.1,10.5,1.6,14.2,2.1C606.4,173.4,611.1,174,618,175z"/>
	<path class="st0" d="M939.7,57.4c1.1,0,2.1,0,2.6,0.5c1.1,0.5,1.6,1.1,2.1,2.1c0.5,1.1,0.5,1.6,0.5,2.6c0,1.6-0.5,3.2-1.6,4.2
		c-1.1,1.1-2.6,1.6-4.2,1.6H759.8v17.4h88.1c1.6,0,2.6,0.5,4.2,1.6c1.1,1.1,1.6,2.6,1.6,4.2v209.4c0,1.6-0.5,2.6-1.6,4.2
		c-1.1,1.1-2.6,1.6-4.2,1.6s-3.2-0.5-4.2-1.6c-1.1-1.1-1.6-2.6-1.6-4.2V97.5h-87.6c-1.6,0-2.6-0.5-4.2-1.6c-1.1-1.1-1.6-2.6-1.6-4.2
		v-29c0-1.6,0.5-2.6,1.6-4.2c1.1-1.1,2.6-1.6,4.2-1.6h185.1V57.4z M865.3,197.7c1.1-1.1,2.6-1.6,4.2-1.6s2.6,0.5,4.2,1.6
		c1.1,1.1,1.6,2.6,1.6,4.2v99.7c0,1.6-0.5,2.6-1.6,4.2c-1.1,1.1-2.6,1.6-4.2,1.6s-2.6-0.5-4.2-1.6c-1.1-1.1-1.6-2.6-1.6-4.2v-99.7
		C863.8,200.3,864.3,198.8,865.3,197.7z"/>
</g>
</svg>
