<?xml version="1.0" encoding="UTF-8"?><svg id="a" xmlns="http://www.w3.org/2000/svg" viewBox="0 0 519.83 258.61"><defs><style>.b{fill:#141414;}</style></defs><path class="b" d="M69.27,45.55v20.88H.95V0H25.62V45.55h43.65Z"/><path class="b" d="M98.71,66.42h-24.67V0h24.67V66.42Z"/><path class="b" d="M156.5,31.31l38.24,35.11h-34.16l-21.25-21.07-10.25,8.45v12.62h-24.67V0h24.67V26L159.63,0h35.11l-38.24,31.31Z"/><path class="b" d="M223.23,18.98v6.17h45.55v16.13h-45.55v6.17h45.55v18.98h-70.22V0h70.22V18.98h-45.55Z"/><path class="b" d="M372.43,54.47h-28.28l-4.56,11.96h-27.14L339.98,0h36.63l27.52,66.42h-27.14l-4.55-11.96Zm-6.45-17.08l-7.69-20.31-7.69,20.31h15.37Z"/><path class="b" d="M66.8,142.97l11.77,19.07h-29.23l-9.2-15.56h-14.52v15.56H.95V95.62H53.14c15.09,0,25.43,10.63,25.43,25.43,0,9.68-4.46,17.65-11.77,21.92Zm-41.18-17.36h22.77c2.47,0,5.51,0,5.51-4.56s-3.04-4.56-5.51-4.56H25.62v9.11Z"/><path class="b" d="M82.39,128.74c0-23.06,12.53-34.07,41.75-34.07s41.75,11.1,41.75,34.07-12.62,34.25-41.75,34.25-41.75-11.1-41.75-34.25Zm58.83,0c0-6.93-2.46-13.19-17.08-13.19s-17.08,6.17-17.08,13.19,2.56,13.38,17.08,13.38,17.08-6.35,17.08-13.38Z"/><path class="b" d="M238.98,141.17v20.88h-68.32V95.62h24.67v45.55h43.65Z"/><path class="b" d="M312.07,141.17v20.88h-68.32V95.62h24.67v45.55h43.65Z"/><path class="b" d="M341.5,162.04h-24.67V95.62h24.67v66.42Z"/><path class="b" d="M432.79,95.62v66.42h-32.26l-28.66-39.19v39.19h-24.67V95.62h32.26l28.66,39.19v-39.19h24.67Z"/><path class="b" d="M476.75,125.89h43.08v36.15h-14.23l-1.8-9.59c-5.6,6.55-14.33,10.53-28.28,10.53-24.48,0-38.9-11.1-38.9-34.25s14.42-34.07,41.75-34.07,40.42,9.3,41.46,27.42h-25.24c-.95-3.42-5.79-6.55-16.22-6.55-14.61,0-17.08,6.17-17.08,14.14s2.56,15.28,17.08,15.28c9.49,0,15.28-1.33,16.22-5.79h-17.84v-13.29Z"/><path class="b" d="M24.67,234.23c0,3.23,3.04,5.41,18.69,5.41,14.61,0,16.8-.95,16.8-3.42,0-2.85-2.18-3.23-17.75-3.7-29.98-.95-41.47-5.88-41.47-21.35,0-14.61,14.33-20.88,40.52-20.88s40.52,6.26,40.52,23.25h-24.67c0-3.51-5.7-4.27-17.75-4.27s-13.95,.57-13.95,3.13,2.37,2.47,16.79,3.04c26.19,1.04,42.42,2.85,42.42,20.21,0,18.32-15.18,22.96-42.42,22.96S0,253.96,0,234.23H24.67Z"/><path class="b" d="M168.36,212.12h-28.47v45.55h-24.67v-45.55h-28.47v-20.88h81.61v20.88Z"/><path class="b" d="M171.23,224.36c0-23.06,12.52-34.07,41.75-34.07s41.75,11.1,41.75,34.07-12.62,34.25-41.75,34.25-41.75-11.1-41.75-34.25Zm58.83,0c0-6.93-2.47-13.19-17.08-13.19s-17.08,6.17-17.08,13.19,2.56,13.38,17.08,13.38,17.08-6.35,17.08-13.38Z"/><path class="b" d="M345.09,191.24v66.42h-32.26l-28.66-39.19v39.19h-24.67v-66.42h32.26l28.66,39.19v-39.19h24.67Z"/><path class="b" d="M375.48,210.22v6.17h45.55v16.13h-45.55v6.17h45.55v18.98h-70.22v-66.42h70.22v18.98h-45.55Z"/><path class="b" d="M449.52,234.23c0,3.23,3.03,5.41,18.69,5.41,14.61,0,16.79-.95,16.79-3.42,0-2.85-2.18-3.23-17.74-3.7-29.99-.95-41.47-5.88-41.47-21.35,0-14.61,14.33-20.88,40.52-20.88s40.52,6.26,40.52,23.25h-24.67c0-3.51-5.69-4.27-17.75-4.27s-13.95,.57-13.95,3.13,2.37,2.47,16.8,3.04c26.19,1.04,42.42,2.85,42.42,20.21,0,18.32-15.18,22.96-42.42,22.96s-42.42-4.65-42.42-24.38h24.67Z"/></svg>